<svg width="32" height="32" viewBox="0 0 32 32" fill="none" xmlns="http://www.w3.org/2000/svg">
<rect x="0.5" y="0.5" width="31" height="31" rx="15.5" fill="white"/>
<path d="M14.209 15.1855C14.3789 15.0625 14.4609 14.8594 14.4609 14.5801C14.4668 14.4473 14.4395 14.3164 14.3809 14.1973C14.3281 14.1016 14.25 14.0215 14.1543 13.9648C14.0551 13.9047 13.9449 13.8648 13.8301 13.8477C13.7051 13.8242 13.5781 13.8125 13.4531 13.8145H12.0801V15.3711H13.5664C13.8223 15.373 14.0391 15.3105 14.209 15.1855V15.1855ZM14.4395 16.5918C14.248 16.4453 13.9922 16.373 13.6738 16.373H12.0762V18.209H13.6426C13.7891 18.209 13.9238 18.1953 14.0547 18.168C14.1785 18.1438 14.2965 18.096 14.4023 18.0273C14.502 17.9629 14.582 17.875 14.6426 17.7617C14.7012 17.6484 14.7305 17.5039 14.7305 17.3301C14.7305 16.9844 14.6328 16.7402 14.4395 16.5918V16.5918ZM16 7.25C11.168 7.25 7.25 11.168 7.25 16C7.25 20.832 11.168 24.75 16 24.75C20.832 24.75 24.75 20.832 24.75 16C24.75 11.168 20.832 7.25 16 7.25ZM17.6895 12.8535H20.3926V13.5117H17.6895V12.8535ZM16 18.2812C15.8736 18.5212 15.693 18.7285 15.4727 18.8867C15.2422 19.0469 14.9863 19.1641 14.7148 19.2324C14.4308 19.3085 14.1378 19.346 13.8438 19.3438H10.6094V12.6816H13.7539C14.0723 12.6816 14.3613 12.7109 14.625 12.7656C14.8867 12.8203 15.1094 12.9141 15.2969 13.041C15.4824 13.168 15.6289 13.3379 15.7324 13.5488C15.834 13.7578 15.8867 14.0195 15.8867 14.3301C15.8867 14.666 15.8105 14.9434 15.6582 15.168C15.5039 15.3926 15.2813 15.5742 14.9785 15.7168C15.3906 15.834 15.6934 16.043 15.8926 16.3359C16.0957 16.6328 16.1953 16.9883 16.1953 17.4062C16.1953 17.7461 16.1309 18.0371 16 18.2812ZM21.4453 17.25H17.9609C17.9609 17.6289 18.0918 17.9922 18.2891 18.1875C18.4883 18.3809 18.7734 18.4785 19.1465 18.4785C19.416 18.4785 19.6445 18.4102 19.8398 18.2754C20.0332 18.1406 20.1504 17.998 20.1934 17.8496H21.3613C21.1738 18.4297 20.8887 18.8438 20.502 19.0938C20.1191 19.3438 19.6504 19.4687 19.1055 19.4687C18.7246 19.4687 18.3828 19.4062 18.0762 19.2871C17.7812 19.1719 17.5156 18.9961 17.2969 18.7695C17.0812 18.5369 16.9145 18.2632 16.8066 17.9648C16.6875 17.6348 16.6289 17.2871 16.6328 16.9375C16.6328 16.5762 16.6934 16.2402 16.8105 15.9277C17.0352 15.3203 17.502 14.834 18.0977 14.582C18.416 14.4492 18.7578 14.3828 19.1035 14.3867C19.5137 14.3867 19.8691 14.4648 20.1777 14.625C20.4748 14.7779 20.7328 14.9971 20.9316 15.2656C21.1289 15.5332 21.2676 15.8379 21.3555 16.1816C21.4395 16.5195 21.4687 16.875 21.4453 17.25V17.25ZM19.0625 15.3828C18.8516 15.3828 18.6738 15.4199 18.5371 15.4922C18.4004 15.5645 18.2871 15.6543 18.2012 15.7578C18.1193 15.8578 18.0588 15.9734 18.0234 16.0977C17.9922 16.2012 17.9707 16.3066 17.9629 16.4141H20.1211C20.0898 16.0762 19.9727 15.8262 19.8164 15.6504C19.6523 15.4766 19.3887 15.3828 19.0625 15.3828V15.3828Z" fill="#8BB1A5"/>
<rect x="0.5" y="0.5" width="31" height="31" rx="15.5" stroke="#8BB1A5"/>
</svg>
