<svg width="32" height="32" viewBox="0 0 32 32" fill="none" xmlns="http://www.w3.org/2000/svg">
<rect x="0.5" y="0.5" width="31" height="31" rx="15.5" fill="white"/>
<path d="M22.6667 12.6668L16.0001 16.8335L9.33341 12.6668V11.0002L16.0001 15.1668L22.6667 11.0002V12.6668ZM22.6667 9.3335H9.33341C8.40841 9.3335 7.66675 10.0752 7.66675 11.0002V21.0002C7.66675 21.4422 7.84234 21.8661 8.1549 22.1787C8.46746 22.4912 8.89139 22.6668 9.33341 22.6668H22.6667C23.1088 22.6668 23.5327 22.4912 23.8453 22.1787C24.1578 21.8661 24.3334 21.4422 24.3334 21.0002V11.0002C24.3334 10.5581 24.1578 10.1342 23.8453 9.82165C23.5327 9.50909 23.1088 9.3335 22.6667 9.3335V9.3335Z" fill="#8BB1A5"/>
<rect x="0.5" y="0.5" width="31" height="31" rx="15.5" stroke="#8BB1A5"/>
</svg>
