<svg width="32" height="32" viewBox="0 0 32 32" fill="none" xmlns="http://www.w3.org/2000/svg">
<rect x="0.5" y="0.5" width="31" height="31" rx="15.5" fill="white"/>
<path d="M10.1524 11.9977C11.1594 11.9977 11.9758 11.1814 11.9758 10.1744C11.9758 9.16741 11.1594 8.35107 10.1524 8.35107C9.14544 8.35107 8.3291 9.16741 8.3291 10.1744C8.3291 11.1814 9.14544 11.9977 10.1524 11.9977Z" fill="#8BB1A5"/>
<path d="M13.6974 13.3794V23.4952H16.8383V18.4927C16.8383 17.1727 17.0866 15.8944 18.7233 15.8944C20.3374 15.8944 20.3574 17.4036 20.3574 18.5761V23.4961H23.4999V17.9486C23.4999 15.2236 22.9133 13.1294 19.7283 13.1294C18.1991 13.1294 17.1741 13.9686 16.7549 14.7627H16.7124V13.3794H13.6974V13.3794ZM8.5791 13.3794H11.7249V23.4952H8.5791V13.3794Z" fill="#8BB1A5"/>
<rect x="0.5" y="0.5" width="31" height="31" rx="15.5" stroke="#8BB1A5"/>
</svg>
